<svg width="72" height="36" viewBox="0 0 72 36" fill="none" xmlns="http://www.w3.org/2000/svg">
<path d="M9.95 3.69L11.36 4.05L8.51 12.79C8.43 13.0233 8.37333 13.2267 8.34 13.4C8.31333 13.5667 8.3 13.73 8.3 13.89V14.27C8.3 14.51 8.24 14.6933 8.12 14.82C8.00667 14.94 7.86333 15 7.69 15H5.57C5.38333 15 5.23 14.94 5.11 14.82C4.99667 14.6933 4.94 14.51 4.94 14.27V13.91C4.94 13.7967 4.92333 13.68 4.89 13.56C4.86333 13.4333 4.82 13.2767 4.76 13.09L1.66 3.36C1.58 3.11333 1.49333 2.93333 1.4 2.82C1.30667 2.70667 1.17333 2.61 1 2.53L0.65 2.4C0.496667 2.32667 0.38 2.23333 0.3 2.12C0.226667 2 0.19 1.85667 0.19 1.69C0.19 1.47667 0.253333 1.31 0.38 1.19C0.513333 1.06333 0.713333 0.999999 0.98 0.999999H5.23C5.50333 0.999999 5.70333 1.06333 5.83 1.19C5.95667 1.31 6.02 1.47667 6.02 1.69C6.02 2.01 5.85667 2.23333 5.53 2.36L5.02 2.46C4.84 2.52667 4.73 2.64667 4.69 2.82C4.65667 2.98667 4.69667 3.25 4.81 3.61L7.77 13.04L6.63 13.92L9.95 3.69ZM16.43 1.69C16.43 1.47667 16.4933 1.31 16.62 1.19C16.7533 1.06333 16.9533 0.999999 17.22 0.999999H20.08C20.3533 0.999999 20.5533 1.06333 20.68 1.19C20.8067 1.31 20.87 1.47667 20.87 1.69C20.87 1.85667 20.8267 1.99333 20.74 2.1C20.66 2.2 20.53 2.29333 20.35 2.38L19.98 2.51C19.8 2.58333 19.6567 2.69667 19.55 2.85C19.4433 3.00333 19.3333 3.26333 19.22 3.63L16.41 12.79C16.3367 13.0167 16.28 13.2167 16.24 13.39C16.2067 13.5633 16.19 13.7267 16.19 13.88V14.26C16.19 14.5 16.1333 14.6833 16.02 14.81C15.9067 14.9367 15.7633 15 15.59 15H13.44C13.26 15 13.11 14.9367 12.99 14.81C12.8767 14.6833 12.82 14.5 12.82 14.26V13.9C12.82 13.7933 12.8033 13.68 12.77 13.56C12.7433 13.44 12.7 13.28 12.64 13.08L9.7 3.36C9.61333 3.07333 9.53 2.86667 9.45 2.74C9.37 2.60667 9.26 2.51 9.12 2.45L8.8 2.33C8.64667 2.26333 8.53 2.18 8.45 2.08C8.37667 1.98 8.34 1.85 8.34 1.69C8.34 1.47667 8.40667 1.31 8.54 1.19C8.67333 1.06333 8.87 0.999999 9.13 0.999999H13.19C13.4633 0.999999 13.6633 1.06333 13.79 1.19C13.9167 1.31 13.98 1.47667 13.98 1.69C13.98 1.86333 13.9367 2.00333 13.85 2.11C13.7633 2.21667 13.6333 2.30667 13.46 2.38L12.93 2.49C12.7633 2.55 12.6633 2.66 12.63 2.82C12.5967 2.98 12.6367 3.24333 12.75 3.61L15.58 13.05L14.54 13.92L17.75 3.47C17.8367 3.17667 17.86 2.95333 17.82 2.8C17.7867 2.64667 17.6567 2.53333 17.43 2.46L16.88 2.34C16.74 2.28 16.63 2.19667 16.55 2.09C16.47 1.98333 16.43 1.85 16.43 1.69ZM24.3795 6.35V12.89C24.3795 13.1567 24.4095 13.3467 24.4695 13.46C24.5362 13.5667 24.6295 13.6467 24.7495 13.7L25.0295 13.79C25.1629 13.8633 25.2629 13.95 25.3295 14.05C25.4029 14.1433 25.4395 14.2633 25.4395 14.41C25.4395 14.5967 25.3829 14.7433 25.2695 14.85C25.1562 14.95 24.9962 15 24.7895 15H21.2995C21.0929 15 20.9295 14.95 20.8095 14.85C20.6962 14.7433 20.6395 14.5967 20.6395 14.41C20.6395 14.2633 20.6762 14.1433 20.7495 14.05C20.8229 13.95 20.9262 13.8633 21.0595 13.79L21.3395 13.7C21.4662 13.6467 21.5595 13.5667 21.6195 13.46C21.6795 13.3467 21.7095 13.1567 21.7095 12.89V8.47C21.7095 8.23667 21.6762 8.07333 21.6095 7.98C21.5495 7.88667 21.4562 7.82 21.3295 7.78L20.8995 7.73C20.7729 7.67 20.6729 7.6 20.5995 7.52C20.5329 7.43333 20.4995 7.32667 20.4995 7.2C20.4995 7.05333 20.5429 6.92667 20.6295 6.82C20.7229 6.71333 20.8762 6.62333 21.0895 6.55L22.6795 5.96C22.9329 5.86 23.1395 5.79 23.2995 5.75C23.4662 5.70333 23.6229 5.68 23.7695 5.68C23.9629 5.68 24.1129 5.74333 24.2195 5.87C24.3262 5.99 24.3795 6.15 24.3795 6.35ZM22.8595 4.25C22.3462 4.25 21.9329 4.11333 21.6195 3.84C21.3129 3.56 21.1595 3.19333 21.1595 2.74C21.1595 2.28667 21.3129 1.92333 21.6195 1.65C21.9329 1.37667 22.3462 1.24 22.8595 1.24C23.3795 1.24 23.7929 1.37667 24.0995 1.65C24.4129 1.92333 24.5695 2.28667 24.5695 2.74C24.5695 3.19333 24.4129 3.56 24.0995 3.84C23.7929 4.11333 23.3795 4.25 22.8595 4.25ZM30.1603 0.819999V12.89C30.1603 13.1567 30.1903 13.3467 30.2503 13.46C30.317 13.5667 30.4103 13.6467 30.5303 13.7L30.8103 13.79C30.9436 13.87 31.047 13.9567 31.1203 14.05C31.1936 14.1433 31.2303 14.2633 31.2303 14.41C31.2303 14.5967 31.1703 14.7433 31.0503 14.85C30.937 14.95 30.777 15 30.5703 15H27.0803C26.8803 15 26.7203 14.95 26.6003 14.85C26.487 14.7433 26.4303 14.5967 26.4303 14.41C26.4303 14.2633 26.4636 14.1433 26.5303 14.05C26.6036 13.9567 26.707 13.87 26.8403 13.79L27.1203 13.7C27.247 13.6467 27.3403 13.5667 27.4003 13.46C27.4603 13.3467 27.4903 13.1567 27.4903 12.89V2.93C27.4903 2.70333 27.4603 2.54333 27.4003 2.45C27.3403 2.35 27.247 2.28 27.1203 2.24L26.6903 2.2C26.557 2.14 26.4536 2.07 26.3803 1.99C26.3136 1.90333 26.2803 1.79333 26.2803 1.66C26.2803 1.51333 26.327 1.39 26.4203 1.29C26.5136 1.18333 26.6636 1.09 26.8703 1.01L28.4703 0.419999C28.717 0.326666 28.9203 0.256666 29.0803 0.209999C29.247 0.163333 29.4036 0.139999 29.5503 0.139999C29.7436 0.139999 29.8936 0.203333 30.0003 0.329999C30.107 0.449999 30.1603 0.613332 30.1603 0.819999ZM36.0588 0.819999V12.89C36.0588 13.1567 36.0888 13.3467 36.1488 13.46C36.2154 13.5667 36.3088 13.6467 36.4288 13.7L36.7088 13.79C36.8421 13.87 36.9454 13.9567 37.0188 14.05C37.0921 14.1433 37.1288 14.2633 37.1288 14.41C37.1288 14.5967 37.0688 14.7433 36.9488 14.85C36.8354 14.95 36.6754 15 36.4688 15H32.9788C32.7788 15 32.6188 14.95 32.4988 14.85C32.3854 14.7433 32.3288 14.5967 32.3288 14.41C32.3288 14.2633 32.3621 14.1433 32.4288 14.05C32.5021 13.9567 32.6054 13.87 32.7388 13.79L33.0188 13.7C33.1454 13.6467 33.2388 13.5667 33.2988 13.46C33.3588 13.3467 33.3888 13.1567 33.3888 12.89V2.93C33.3888 2.70333 33.3588 2.54333 33.2988 2.45C33.2388 2.35 33.1454 2.28 33.0188 2.24L32.5888 2.2C32.4554 2.14 32.3521 2.07 32.2788 1.99C32.2121 1.90333 32.1788 1.79333 32.1788 1.66C32.1788 1.51333 32.2254 1.39 32.3188 1.29C32.4121 1.18333 32.5621 1.09 32.7688 1.01L34.3688 0.419999C34.6154 0.326666 34.8188 0.256666 34.9788 0.209999C35.1454 0.163333 35.3021 0.139999 35.4488 0.139999C35.6421 0.139999 35.7921 0.203333 35.8988 0.329999C36.0054 0.449999 36.0588 0.613332 36.0588 0.819999ZM41.86 6.35V12.89C41.86 13.1567 41.89 13.3467 41.95 13.46C42.0167 13.5667 42.11 13.6467 42.23 13.7L42.51 13.79C42.6433 13.8633 42.7433 13.95 42.81 14.05C42.8833 14.1433 42.92 14.2633 42.92 14.41C42.92 14.5967 42.8633 14.7433 42.75 14.85C42.6367 14.95 42.4767 15 42.27 15H38.78C38.5733 15 38.41 14.95 38.29 14.85C38.1767 14.7433 38.12 14.5967 38.12 14.41C38.12 14.2633 38.1567 14.1433 38.23 14.05C38.3033 13.95 38.4067 13.8633 38.54 13.79L38.82 13.7C38.9467 13.6467 39.04 13.5667 39.1 13.46C39.16 13.3467 39.19 13.1567 39.19 12.89V8.47C39.19 8.23667 39.1567 8.07333 39.09 7.98C39.03 7.88667 38.9367 7.82 38.81 7.78L38.38 7.73C38.2533 7.67 38.1533 7.6 38.08 7.52C38.0133 7.43333 37.98 7.32667 37.98 7.2C37.98 7.05333 38.0233 6.92667 38.11 6.82C38.2033 6.71333 38.3567 6.62333 38.57 6.55L40.16 5.96C40.4133 5.86 40.62 5.79 40.78 5.75C40.9467 5.70333 41.1033 5.68 41.25 5.68C41.4433 5.68 41.5933 5.74333 41.7 5.87C41.8067 5.99 41.86 6.15 41.86 6.35ZM40.34 4.25C39.8267 4.25 39.4133 4.11333 39.1 3.84C38.7933 3.56 38.64 3.19333 38.64 2.74C38.64 2.28667 38.7933 1.92333 39.1 1.65C39.4133 1.37667 39.8267 1.24 40.34 1.24C40.86 1.24 41.2733 1.37667 41.58 1.65C41.8933 1.92333 42.05 2.28667 42.05 2.74C42.05 3.19333 41.8933 3.56 41.58 3.84C41.2733 4.11333 40.86 4.25 40.34 4.25ZM49.6908 13.68V13.38L49.4608 13.26V8.05C49.4608 7.62333 49.3441 7.29333 49.1108 7.06C48.8841 6.82667 48.5708 6.71 48.1708 6.71C47.8174 6.71 47.5374 6.78333 47.3308 6.93C47.1308 7.07667 47.0308 7.26667 47.0308 7.5V8.06C47.0308 8.46 46.9074 8.76667 46.6608 8.98C46.4141 9.19333 46.0608 9.3 45.6008 9.3C45.1874 9.3 44.8774 9.20333 44.6708 9.01C44.4708 8.81 44.3708 8.54333 44.3708 8.21C44.3708 7.78333 44.5374 7.37333 44.8708 6.98C45.2108 6.58667 45.7108 6.26667 46.3708 6.02C47.0308 5.76667 47.8441 5.64 48.8108 5.64C49.9174 5.64 50.7441 5.88 51.2908 6.36C51.8374 6.84 52.1108 7.49667 52.1108 8.33V13.04C52.1108 13.1733 52.1441 13.2867 52.2108 13.38C52.2774 13.4667 52.3808 13.51 52.5208 13.51C52.6074 13.51 52.6774 13.4967 52.7308 13.47C52.7908 13.4433 52.8408 13.4067 52.8808 13.36C52.9141 13.3267 52.9508 13.3 52.9908 13.28C53.0308 13.2533 53.0774 13.24 53.1308 13.24C53.2508 13.24 53.3441 13.2833 53.4108 13.37C53.4774 13.4567 53.5108 13.57 53.5108 13.71C53.5108 13.9567 53.4308 14.1967 53.2708 14.43C53.1174 14.6633 52.8974 14.8533 52.6108 15C52.3308 15.1533 51.9941 15.23 51.6008 15.23C51.0474 15.23 50.5908 15.09 50.2308 14.81C49.8708 14.5233 49.6908 14.1467 49.6908 13.68ZM43.9808 12.93C43.9808 12.0833 44.3474 11.41 45.0808 10.91C45.8141 10.4033 46.8008 10.15 48.0408 10.15C48.4008 10.15 48.7474 10.1767 49.0808 10.23C49.4141 10.2833 49.6941 10.3567 49.9208 10.45L49.6708 11.35C49.4641 11.2567 49.2474 11.1867 49.0208 11.14C48.8008 11.0867 48.5608 11.06 48.3008 11.06C47.8074 11.06 47.4141 11.1833 47.1208 11.43C46.8274 11.67 46.6808 12.0033 46.6808 12.43C46.6808 12.8433 46.8041 13.16 47.0508 13.38C47.3041 13.5933 47.6274 13.7 48.0208 13.7C48.3808 13.7 48.7174 13.62 49.0308 13.46C49.3441 13.2933 49.6074 13.07 49.8208 12.79L50.0608 13.63C49.7141 14.1367 49.2441 14.53 48.6508 14.81C48.0574 15.09 47.4208 15.23 46.7408 15.23C45.9008 15.23 45.2308 15.02 44.7308 14.6C44.2308 14.18 43.9808 13.6233 43.9808 12.93ZM58.0219 6.35V12.89C58.0219 13.1767 58.0485 13.38 58.1019 13.5C58.1552 13.62 58.2485 13.7067 58.3819 13.76L58.6719 13.87C58.8985 13.9967 59.0119 14.1767 59.0119 14.41C59.0119 14.8033 58.8119 15 58.4119 15H54.9519C54.7519 15 54.5919 14.95 54.4719 14.85C54.3519 14.7433 54.2919 14.5967 54.2919 14.41C54.2919 14.2633 54.3285 14.1433 54.4019 14.05C54.4752 13.9567 54.5785 13.87 54.7119 13.79L54.9919 13.7C55.1185 13.6467 55.2119 13.5667 55.2719 13.46C55.3319 13.3467 55.3619 13.1567 55.3619 12.89V8.47C55.3619 8.23667 55.3285 8.07333 55.2619 7.98C55.2019 7.88667 55.1085 7.82 54.9819 7.78L54.5519 7.73C54.4252 7.67 54.3252 7.6 54.2519 7.52C54.1852 7.43333 54.1519 7.32667 54.1519 7.2C54.1519 7.05333 54.1952 6.92667 54.2819 6.82C54.3752 6.71333 54.5285 6.62333 54.7419 6.55L56.3219 5.96C56.5752 5.86 56.7819 5.79 56.9419 5.75C57.1019 5.70333 57.2585 5.68 57.4119 5.68C57.6052 5.68 57.7552 5.74333 57.8619 5.87C57.9685 5.99 58.0219 6.15 58.0219 6.35ZM57.7519 8.78L57.1919 8.13L57.6519 7.69C58.3985 6.95667 59.0752 6.43 59.6819 6.11C60.2952 5.79 60.8752 5.63 61.4219 5.63C62.2085 5.63 62.8419 5.89 63.3219 6.41C63.8085 6.93 64.0519 7.63333 64.0519 8.52V12.89C64.0519 13.1767 64.0785 13.38 64.1319 13.5C64.1852 13.6133 64.2785 13.7 64.4119 13.76L64.7019 13.87C64.9285 13.9967 65.0419 14.1767 65.0419 14.41C65.0419 14.8033 64.8419 15 64.4419 15H60.9919C60.5919 15 60.3919 14.8033 60.3919 14.41C60.3919 14.1767 60.5085 13.9967 60.7419 13.87L61.0319 13.76C61.1652 13.7067 61.2585 13.62 61.3119 13.5C61.3652 13.38 61.3919 13.1767 61.3919 12.89V9.19C61.3919 8.65667 61.2685 8.25 61.0219 7.97C60.7752 7.69 60.4419 7.55 60.0219 7.55C59.7352 7.55 59.4319 7.62 59.1119 7.76C58.7919 7.9 58.4619 8.12667 58.1219 8.44L57.7519 8.78ZM63.8119 8.77L63.2519 8.11L63.6619 7.71C64.4019 6.96333 65.0785 6.43 65.6919 6.11C66.3052 5.79 66.8852 5.63 67.4319 5.63C68.2185 5.63 68.8519 5.89 69.3319 6.41C69.8185 6.93 70.0619 7.63333 70.0619 8.52V12.89C70.0619 13.1567 70.0919 13.3467 70.1519 13.46C70.2185 13.5667 70.3119 13.6467 70.4319 13.7L70.7119 13.79C70.8452 13.87 70.9452 13.9567 71.0119 14.05C71.0852 14.1433 71.1219 14.2633 71.1219 14.41C71.1219 14.5967 71.0652 14.7433 70.9519 14.85C70.8385 14.95 70.6752 15 70.4619 15H67.0019C66.6019 15 66.4019 14.8033 66.4019 14.41C66.4019 14.1767 66.5185 13.9967 66.7519 13.87L67.0419 13.76C67.1752 13.7067 67.2685 13.62 67.3219 13.5C67.3752 13.38 67.4019 13.1767 67.4019 12.89V9.19C67.4019 8.65667 67.2785 8.25 67.0319 7.97C66.7852 7.69 66.4519 7.55 66.0319 7.55C65.7452 7.55 65.4419 7.62333 65.1219 7.77C64.8019 7.91 64.4719 8.14333 64.1319 8.47L63.8119 8.77ZM12.91 34.45C12.91 34.75 12.8467 34.97 12.72 35.11C12.5933 35.25 12.4 35.32 12.14 35.32C11.9733 35.32 11.8333 35.27 11.72 35.17C11.6133 35.07 11.5167 34.9567 11.43 34.83C11.35 34.7033 11.2667 34.59 11.18 34.49C11.1 34.39 11.0067 34.34 10.9 34.34C10.7867 34.34 10.6367 34.3867 10.45 34.48C10.27 34.5733 10.04 34.6833 9.76 34.81C9.48667 34.9367 9.15333 35.0467 8.76 35.14C8.36667 35.24 7.9 35.29 7.36 35.29C6.31333 35.29 5.37667 35.1167 4.55 34.77C3.73 34.4233 3.03 33.93 2.45 33.29C1.87667 32.6433 1.44 31.8767 1.14 30.99C0.84 30.1033 0.69 29.1167 0.69 28.03C0.69 26.99 0.863333 26.0267 1.21 25.14C1.55667 24.2467 2.04 23.47 2.66 22.81C3.28667 22.15 4.01667 21.6367 4.85 21.27C5.68333 20.9033 6.58333 20.72 7.55 20.72C8.25667 20.72 8.82667 20.78 9.26 20.9C9.7 21.02 10.0467 21.1433 10.3 21.27C10.5533 21.39 10.76 21.45 10.92 21.45C11.0467 21.45 11.15 21.3933 11.23 21.28C11.3167 21.1667 11.4033 21.0567 11.49 20.95C11.5833 20.8367 11.71 20.78 11.87 20.78C12.0433 20.78 12.1733 20.8333 12.26 20.94C12.3467 21.0467 12.43 21.2367 12.51 21.51L13.49 24.8C13.55 25.0067 13.5267 25.1867 13.42 25.34C13.3133 25.4933 13.1567 25.5867 12.95 25.62C12.7633 25.6533 12.59 25.63 12.43 25.55C12.2767 25.47 12.1467 25.3233 12.04 25.11C11.6933 24.3433 11.31 23.74 10.89 23.3C10.47 22.86 10.01 22.55 9.51 22.37C9.01 22.1833 8.47333 22.09 7.9 22.09C7.08667 22.09 6.36333 22.3133 5.73 22.76C5.09667 23.2067 4.6 23.8433 4.24 24.67C3.88 25.4967 3.7 26.48 3.7 27.62C3.7 28.8667 3.90667 29.94 4.32 30.84C4.73333 31.7333 5.28333 32.42 5.97 32.9C6.65667 33.38 7.41 33.62 8.23 33.62C8.58333 33.62 8.88333 33.5933 9.13 33.54C9.38333 33.48 9.59 33.3967 9.75 33.29C9.91 33.1833 10.0267 33.0533 10.1 32.9C10.18 32.7467 10.22 32.57 10.22 32.37V30.54C10.22 30.3333 10.17 30.18 10.07 30.08C9.97667 29.98 9.84 29.9033 9.66 29.85L9.15 29.72C8.95667 29.64 8.8 29.5467 8.68 29.44C8.56667 29.3333 8.51 29.19 8.51 29.01C8.51 28.8033 8.57333 28.6433 8.7 28.53C8.83333 28.41 9.03333 28.35 9.3 28.35H13.56C13.8333 28.35 14.0333 28.41 14.16 28.53C14.2933 28.6433 14.36 28.8 14.36 29C14.36 29.1733 14.3133 29.3133 14.22 29.42C14.1333 29.5267 14.0033 29.6167 13.83 29.69L13.47 29.78C13.3033 29.8333 13.1667 29.9167 13.06 30.03C12.96 30.1433 12.91 30.3133 12.91 30.54V34.45ZM19.067 26.35V32.89C19.067 33.1567 19.097 33.3467 19.157 33.46C19.2237 33.5667 19.317 33.6467 19.437 33.7L19.717 33.79C19.8504 33.8633 19.9504 33.95 20.017 34.05C20.0904 34.1433 20.127 34.2633 20.127 34.41C20.127 34.5967 20.0704 34.7433 19.957 34.85C19.8437 34.95 19.6837 35 19.477 35H15.987C15.7804 35 15.617 34.95 15.497 34.85C15.3837 34.7433 15.327 34.5967 15.327 34.41C15.327 34.2633 15.3637 34.1433 15.437 34.05C15.5104 33.95 15.6137 33.8633 15.747 33.79L16.027 33.7C16.1537 33.6467 16.247 33.5667 16.307 33.46C16.367 33.3467 16.397 33.1567 16.397 32.89V28.47C16.397 28.2367 16.3637 28.0733 16.297 27.98C16.237 27.8867 16.1437 27.82 16.017 27.78L15.587 27.73C15.4604 27.67 15.3604 27.6 15.287 27.52C15.2204 27.4333 15.187 27.3267 15.187 27.2C15.187 27.0533 15.2304 26.9267 15.317 26.82C15.4104 26.7133 15.5637 26.6233 15.777 26.55L17.367 25.96C17.6204 25.86 17.827 25.79 17.987 25.75C18.1537 25.7033 18.3104 25.68 18.457 25.68C18.6504 25.68 18.8004 25.7433 18.907 25.87C19.0137 25.99 19.067 26.15 19.067 26.35ZM17.547 24.25C17.0337 24.25 16.6204 24.1133 16.307 23.84C16.0004 23.56 15.847 23.1933 15.847 22.74C15.847 22.2867 16.0004 21.9233 16.307 21.65C16.6204 21.3767 17.0337 21.24 17.547 21.24C18.067 21.24 18.4804 21.3767 18.787 21.65C19.1004 21.9233 19.257 22.2867 19.257 22.74C19.257 23.1933 19.1004 23.56 18.787 23.84C18.4804 24.1133 18.067 24.25 17.547 24.25ZM24.8478 20.82V32.89C24.8478 33.1567 24.8778 33.3467 24.9378 33.46C25.0045 33.5667 25.0978 33.6467 25.2178 33.7L25.4978 33.79C25.6311 33.87 25.7345 33.9567 25.8078 34.05C25.8811 34.1433 25.9178 34.2633 25.9178 34.41C25.9178 34.5967 25.8578 34.7433 25.7378 34.85C25.6245 34.95 25.4645 35 25.2578 35H21.7678C21.5678 35 21.4078 34.95 21.2878 34.85C21.1745 34.7433 21.1178 34.5967 21.1178 34.41C21.1178 34.2633 21.1511 34.1433 21.2178 34.05C21.2911 33.9567 21.3945 33.87 21.5278 33.79L21.8078 33.7C21.9345 33.6467 22.0278 33.5667 22.0878 33.46C22.1478 33.3467 22.1778 33.1567 22.1778 32.89V22.93C22.1778 22.7033 22.1478 22.5433 22.0878 22.45C22.0278 22.35 21.9345 22.28 21.8078 22.24L21.3778 22.2C21.2445 22.14 21.1411 22.07 21.0678 21.99C21.0011 21.9033 20.9678 21.7933 20.9678 21.66C20.9678 21.5133 21.0145 21.39 21.1078 21.29C21.2011 21.1833 21.3511 21.09 21.5578 21.01L23.1578 20.42C23.4045 20.3267 23.6078 20.2567 23.7678 20.21C23.9345 20.1633 24.0911 20.14 24.2378 20.14C24.4311 20.14 24.5811 20.2033 24.6878 20.33C24.7945 20.45 24.8478 20.6133 24.8478 20.82ZM30.3763 20.82V34.05L29.3763 34.79C29.1563 34.9033 28.9496 34.99 28.7563 35.05C28.5629 35.11 28.3863 35.14 28.2263 35.14C28.0596 35.14 27.9296 35.0933 27.8363 35C27.7496 34.9067 27.7063 34.7667 27.7063 34.58V22.93C27.7063 22.7033 27.6729 22.5433 27.6063 22.45C27.5463 22.35 27.4529 22.28 27.3263 22.24L26.8963 22.2C26.7629 22.14 26.6629 22.07 26.5963 21.99C26.5296 21.9033 26.4963 21.7933 26.4963 21.66C26.4963 21.5133 26.5396 21.39 26.6263 21.29C26.7196 21.1833 26.8729 21.09 27.0863 21.01L28.6763 20.42C28.9296 20.3267 29.1363 20.2567 29.2963 20.21C29.4563 20.1633 29.6129 20.14 29.7663 20.14C29.9596 20.14 30.1096 20.2033 30.2163 20.33C30.3229 20.45 30.3763 20.6133 30.3763 20.82ZM29.8063 28.93L29.3563 28.24C29.8429 27.4267 30.4196 26.79 31.0863 26.33C31.7529 25.8633 32.4896 25.63 33.2963 25.63C34.0496 25.63 34.7163 25.8233 35.2963 26.21C35.8763 26.59 36.3296 27.1233 36.6563 27.81C36.9896 28.49 37.1563 29.2867 37.1563 30.2C37.1563 31.2467 36.9563 32.1467 36.5563 32.9C36.1629 33.6467 35.6263 34.2233 34.9463 34.63C34.2663 35.03 33.4996 35.23 32.6463 35.23C31.8863 35.23 31.2096 35.0467 30.6163 34.68C30.0296 34.3067 29.5496 33.7833 29.1763 33.11L29.8863 32.12C30.1663 32.6867 30.5029 33.1033 30.8963 33.37C31.2963 33.63 31.7196 33.76 32.1663 33.76C32.5863 33.76 32.9629 33.6333 33.2963 33.38C33.6363 33.1267 33.9029 32.7567 34.0963 32.27C34.2896 31.7767 34.3863 31.1833 34.3863 30.49C34.3863 29.79 34.2863 29.2033 34.0863 28.73C33.8929 28.25 33.6263 27.89 33.2863 27.65C32.9463 27.4033 32.5596 27.28 32.1263 27.28C31.6463 27.28 31.2096 27.42 30.8163 27.7C30.4296 27.98 30.0929 28.39 29.8063 28.93ZM47.0744 29.13C47.0744 29.57 46.9477 29.91 46.6944 30.15C46.4477 30.3833 46.0944 30.5 45.6344 30.5H39.9944V29.52H43.7544C44.161 29.52 44.3644 29.3267 44.3644 28.94C44.3644 28.3267 44.211 27.85 43.9044 27.51C43.5977 27.1633 43.2077 26.99 42.7344 26.99C42.3477 26.99 42.0044 27.0967 41.7044 27.31C41.4044 27.5233 41.1644 27.8333 40.9844 28.24C40.811 28.6467 40.7244 29.1433 40.7244 29.73C40.7244 30.8967 41.001 31.7833 41.5544 32.39C42.1144 32.99 42.8444 33.29 43.7444 33.29C44.2977 33.29 44.7844 33.17 45.2044 32.93C45.631 32.6833 45.961 32.3867 46.1944 32.04C46.3077 31.92 46.4044 31.8367 46.4844 31.79C46.5644 31.7367 46.6444 31.7133 46.7244 31.72C46.8244 31.72 46.9077 31.76 46.9744 31.84C47.0477 31.9133 47.081 32.0333 47.0744 32.2C47.0544 32.72 46.8744 33.21 46.5344 33.67C46.1944 34.13 45.7244 34.5067 45.1244 34.8C44.5244 35.0867 43.8177 35.23 43.0044 35.23C42.051 35.23 41.221 35.0333 40.5144 34.64C39.8077 34.24 39.261 33.6867 38.8744 32.98C38.4944 32.2733 38.3044 31.4567 38.3044 30.53C38.3044 29.5967 38.491 28.76 38.8644 28.02C39.2444 27.28 39.7944 26.6967 40.5144 26.27C41.2344 25.8433 42.0977 25.63 43.1044 25.63C43.9044 25.63 44.601 25.7833 45.1944 26.09C45.7877 26.3967 46.2477 26.8167 46.5744 27.35C46.9077 27.8767 47.0744 28.47 47.0744 29.13ZM51.5667 29.91C51.5667 28.95 51.6934 28.1533 51.9467 27.52C52.2067 26.8867 52.5501 26.4133 52.9767 26.1C53.4101 25.7867 53.8901 25.63 54.4167 25.63C54.9967 25.63 55.4467 25.81 55.7667 26.17C56.0934 26.5233 56.2567 27.0367 56.2567 27.71C56.2567 28.29 56.1401 28.72 55.9067 29C55.6801 29.2733 55.3801 29.41 55.0067 29.41C54.6201 29.41 54.3267 29.3167 54.1267 29.13C53.9334 28.9367 53.8367 28.67 53.8367 28.33V27.98C53.8367 27.78 53.7867 27.6333 53.6867 27.54C53.5934 27.4467 53.4601 27.4 53.2867 27.4C53.0601 27.4 52.8434 27.49 52.6367 27.67C52.4367 27.85 52.2734 28.12 52.1467 28.48C52.0267 28.8333 51.9667 29.2733 51.9667 29.8L51.5667 29.91ZM51.8167 26.42L51.9667 28.49V32.89C51.9667 33.1367 52.0067 33.3267 52.0867 33.46C52.1734 33.5933 52.3101 33.6733 52.4967 33.7L53.2167 33.79C53.4034 33.8167 53.5401 33.8867 53.6267 34C53.7134 34.1133 53.7567 34.25 53.7567 34.41C53.7567 34.59 53.7001 34.7333 53.5867 34.84C53.4734 34.9467 53.3101 35 53.0967 35H48.9167C48.7167 35 48.5567 34.95 48.4367 34.85C48.3167 34.7433 48.2567 34.5967 48.2567 34.41C48.2567 34.2633 48.2934 34.1433 48.3667 34.05C48.4401 33.9567 48.5434 33.87 48.6767 33.79L48.9567 33.7C49.0834 33.6467 49.1767 33.5667 49.2367 33.46C49.2967 33.3467 49.3267 33.1567 49.3267 32.89V28.47C49.3267 28.2367 49.2934 28.0733 49.2267 27.98C49.1667 27.8867 49.0734 27.82 48.9467 27.78L48.5167 27.73C48.3901 27.6767 48.2901 27.6067 48.2167 27.52C48.1501 27.4333 48.1167 27.3267 48.1167 27.2C48.1167 27.0533 48.1634 26.9267 48.2567 26.82C48.3501 26.7133 48.5001 26.6233 48.7067 26.55L50.3267 25.95C50.5467 25.8633 50.7334 25.7967 50.8867 25.75C51.0401 25.7033 51.1667 25.68 51.2667 25.68C51.4267 25.68 51.5501 25.7333 51.6367 25.84C51.7301 25.9467 51.7901 26.14 51.8167 26.42ZM57.4253 27.15L57.0453 27.07C56.8986 27.0033 56.792 26.92 56.7253 26.82C56.6653 26.7133 56.6353 26.5867 56.6353 26.44C56.6353 26.2667 56.6953 26.1233 56.8153 26.01C56.9353 25.8967 57.0953 25.84 57.2953 25.84H57.7353C57.8686 25.84 57.9886 25.8 58.0953 25.72C58.202 25.64 58.3153 25.4933 58.4353 25.28L59.0153 24.13C59.142 23.93 59.2853 23.7733 59.4453 23.66C59.612 23.5467 59.7753 23.49 59.9353 23.49C60.122 23.49 60.272 23.55 60.3853 23.67C60.5053 23.7833 60.5653 23.9567 60.5653 24.19V32.04C60.5653 32.44 60.6486 32.7433 60.8153 32.95C60.9886 33.1567 61.232 33.26 61.5453 33.26C61.732 33.26 61.892 33.2267 62.0253 33.16C62.1586 33.0933 62.2753 33.0133 62.3753 32.92C62.482 32.8267 62.5786 32.7467 62.6653 32.68C62.752 32.6133 62.8386 32.5833 62.9253 32.59C63.0253 32.59 63.1053 32.6333 63.1653 32.72C63.232 32.8067 63.2586 32.9367 63.2453 33.11C63.2386 33.47 63.1153 33.81 62.8753 34.13C62.6353 34.45 62.312 34.71 61.9053 34.91C61.5053 35.1033 61.0553 35.2 60.5553 35.2C59.7086 35.2 59.0553 34.9833 58.5953 34.55C58.1353 34.1167 57.9053 33.45 57.9053 32.55V27.91C57.9053 27.6833 57.8686 27.5167 57.7953 27.41C57.722 27.2967 57.5986 27.21 57.4253 27.15ZM59.4953 27.22V25.84H62.6353C62.842 25.84 63.002 25.8867 63.1153 25.98C63.2286 26.0667 63.2853 26.1967 63.2853 26.37C63.2853 26.61 63.1786 26.8133 62.9653 26.98C62.752 27.14 62.4086 27.22 61.9353 27.22H59.4953Z" fill="white"/>
</svg>
